<svg width="62" height="62" viewBox="0 0 62 62" fill="none" xmlns="http://www.w3.org/2000/svg">
<rect width="62" height="62" rx="4" fill="url(#paint0_linear_87_309)"/>
<path d="M28.0796 19.607C27.6898 19.607 27.3835 19.6815 27.1608 19.8305C26.9566 19.9795 26.8081 20.2588 26.7153 20.6685C26.6411 21.0782 26.6039 21.6928 26.6039 22.5122V25.7805C26.6039 26.6558 26.5019 27.3728 26.2977 27.9315C26.1121 28.4902 25.88 28.9278 25.6016 29.2444C25.3232 29.5424 25.0448 29.7752 24.7663 29.9428C25.0262 30.1104 25.2953 30.3525 25.5738 30.6691C25.8522 30.967 26.0935 31.3674 26.2977 31.8702C26.5019 32.3731 26.6039 33.0062 26.6039 33.7698V37.4292C26.6039 38.23 26.6411 38.8352 26.7153 39.2449C26.8081 39.6733 26.9566 39.9619 27.1608 40.1109C27.3835 40.2599 27.6898 40.3344 28.0796 40.3344H29.3047V42.625H27.5228C27.0587 42.625 26.6132 42.6064 26.1863 42.5691C25.7594 42.5505 25.3696 42.4388 25.0169 42.2339C24.6828 42.0291 24.4136 41.6659 24.2095 41.1445C24.0053 40.6417 23.9032 39.8967 23.9032 38.9097V34.4961C23.9032 33.956 23.829 33.4253 23.6805 32.9038C23.532 32.3824 23.2907 31.9447 22.9565 31.5909C22.641 31.2371 22.2141 31.0601 21.6758 31.0601V28.7695C22.2141 28.7509 22.641 28.574 22.9565 28.2388C23.2907 27.8849 23.532 27.4473 23.6805 26.9258C23.829 26.3858 23.9032 25.8457 23.9032 25.3057V20.6685C23.9032 19.7933 24.0053 19.1228 24.2095 18.6573C24.4136 18.1917 24.6828 17.8658 25.0169 17.6796C25.3696 17.4933 25.7594 17.3909 26.1863 17.3723C26.6318 17.335 27.0773 17.3164 27.5228 17.3164H29.3047V19.607H28.0796Z" fill="url(#paint1_linear_87_309)"/>
<path d="M32.2909 29.8879C32.2909 29.5966 32.3968 29.3517 32.6086 29.1531C32.8337 28.9412 33.072 28.8353 33.3236 28.8353C33.5884 28.8353 33.8267 28.9346 34.0385 29.1332C34.2503 29.3318 34.3563 29.5834 34.3563 29.8879C34.3563 30.2056 34.2503 30.4638 34.0385 30.6624C33.8267 30.8477 33.5884 30.9404 33.3236 30.9404C33.072 30.9404 32.8337 30.8477 32.6086 30.6624C32.3968 30.4638 32.2909 30.2056 32.2909 29.8879ZM33.9988 34.2371C33.7075 34.9255 33.4163 35.6074 33.125 36.2826C32.847 36.971 32.5623 37.6661 32.271 38.3678H30.7617C31.0265 37.6794 31.2847 36.9909 31.5362 36.3025C31.801 35.614 32.0592 34.9255 32.3107 34.2371H33.9988Z" fill="#D9D9D9"/>
<path d="M37.1986 37.3351C37.4767 37.3351 37.6885 37.2822 37.8341 37.1763C37.9798 37.0703 38.0791 36.8651 38.132 36.5606C38.1982 36.2694 38.2313 35.8391 38.2313 35.2698V32.6682C38.2313 32.1121 38.3041 31.6554 38.4498 31.2979C38.6087 30.9404 38.7874 30.6558 38.986 30.4439C39.1978 30.2321 39.3832 30.0798 39.542 29.9872C39.3832 29.8548 39.1978 29.6827 38.986 29.4708C38.7741 29.259 38.5954 28.9743 38.4498 28.6169C38.3041 28.2462 38.2313 27.7894 38.2313 27.2466V24.645C38.2313 24.0625 38.1982 23.6256 38.132 23.3343C38.0791 23.043 37.9798 22.851 37.8341 22.7584C37.6885 22.6524 37.4767 22.5995 37.1986 22.5995H36.305V20.971H37.5561C37.8739 20.971 38.185 20.9776 38.4895 20.9909C38.794 21.0041 39.072 21.0769 39.3236 21.2093C39.5751 21.3417 39.7737 21.5734 39.9194 21.9044C40.0782 22.2354 40.1577 22.712 40.1577 23.3343V26.4721C40.1577 26.7369 40.1775 27.0281 40.2173 27.3459C40.2702 27.6504 40.3497 27.9417 40.4556 28.2197C40.5747 28.4977 40.7402 28.7294 40.9521 28.9148C41.1639 29.0869 41.4287 29.1796 41.7464 29.1928V30.8213C41.4287 30.8213 41.1639 30.9139 40.9521 31.0993C40.7402 31.2846 40.5747 31.5163 40.4556 31.7944C40.3497 32.0592 40.2702 32.3504 40.2173 32.6682C40.1775 32.9727 40.1577 33.264 40.1577 33.542V36.5805C40.1577 37.2027 40.0849 37.6794 39.9392 38.0104C39.7936 38.3413 39.595 38.573 39.3435 38.7054C39.0919 38.8378 38.8139 38.9106 38.5094 38.9239C38.2048 38.9504 37.8871 38.9636 37.5561 38.9636H36.305V37.3351H37.1986Z" fill="#D9D9D9"/>
<defs>
<linearGradient id="paint0_linear_87_309" x1="0" y1="62" x2="74.1742" y2="38.5505" gradientUnits="userSpaceOnUse">
<stop stop-color="#4C066D"/>
<stop offset="1" stop-color="#7700B0"/>
</linearGradient>
<linearGradient id="paint1_linear_87_309" x1="25.6804" y1="17.4561" x2="25.6804" y2="45.3905" gradientUnits="userSpaceOnUse">
<stop stop-color="#B02FFF"/>
<stop offset="1" stop-color="#694281"/>
</linearGradient>
</defs>
</svg>
